<?xml version="1.0" standalone="no"?>
<!DOCTYPE svg PUBLIC "-//W3C//DTD SVG 20010904//EN"
 "http://www.w3.org/TR/2001/REC-SVG-20010904/DTD/svg10.dtd">
<svg version="1.0" xmlns="http://www.w3.org/2000/svg"
 width="650.000000pt" height="650.000000pt" viewBox="0 0 650.000000 650.000000"
 preserveAspectRatio="xMidYMid meet">
<metadata>
Created by potrace 1.14, written by Peter Selinger 2001-2017
</metadata>
<g transform="translate(0.000000,650.000000) scale(0.100000,-0.100000)"
fill="#000000" stroke="none">
<path d="M4218 6055 c-2 -2 -44 -5 -93 -6 -50 -2 -106 -6 -125 -10 -19 -4 -55
-9 -80 -12 -25 -3 -92 -17 -149 -31 -332 -83 -641 -263 -881 -513 -93 -97
-105 -112 -184 -223 -133 -187 -244 -437 -282 -639 -3 -14 -7 -28 -9 -31 -14
-22 -37 -224 -39 -343 l-3 -122 -101 -1 c-94 -2 -181 -8 -242 -18 -14 -3 -42
-7 -64 -11 -124 -18 -339 -88 -481 -156 -175 -84 -402 -249 -519 -378 -17 -18
-46 -50 -64 -70 -200 -217 -386 -605 -426 -886 -2 -16 -8 -50 -12 -75 -4 -25
-9 -58 -10 -75 -5 -47 -4 -328 0 -350 2 -11 8 -49 12 -85 4 -36 8 -67 9 -70
54 -258 144 -480 278 -682 304 -459 796 -758 1342 -815 152 -16 376 -6 543 23
114 20 316 88 447 150 369 174 705 516 873 890 110 244 157 445 169 714 3 74
6 136 7 136 0 1 64 4 141 7 123 5 314 29 335 42 4 3 25 7 46 11 58 9 248 76
345 123 114 54 296 165 329 201 3 3 23 18 45 35 74 54 252 243 329 348 42 58
76 108 76 112 0 4 9 20 20 35 78 110 200 432 226 600 11 66 14 89 20 135 8 58
8 356 0 399 -3 16 -8 50 -12 75 -10 76 -11 83 -33 171 -160 659 -697 1186
-1367 1343 -125 29 -162 35 -294 42 -52 3 -100 8 -107 10 -6 2 -13 2 -15 0z
m112 -489 c456 -31 886 -321 1099 -739 26 -51 58 -128 73 -172 23 -71 32 -103
52 -195 25 -109 25 -368 1 -495 -39 -202 -130 -404 -256 -571 -66 -88 -204
-227 -258 -262 -14 -9 -32 -22 -39 -29 -27 -26 -179 -110 -262 -146 -83 -35
-204 -71 -276 -83 -20 -3 -46 -8 -58 -11 -36 -9 -330 -12 -352 -3 -15 6 -28
27 -39 62 -56 171 -216 440 -341 574 -16 17 -45 48 -64 70 -88 96 -266 235
-405 316 -68 39 -248 122 -285 131 -58 14 -62 23 -63 158 -2 199 20 338 79
503 77 216 250 458 419 587 17 13 32 26 35 30 11 14 129 89 190 121 128 67
263 114 400 138 65 12 236 28 255 24 6 -1 48 -5 95 -8z m-1883 -1931 c15 -4
26 -20 39 -57 97 -293 346 -632 607 -826 40 -29 79 -59 87 -65 60 -48 273
-158 380 -197 89 -33 88 -31 88 -204 -1 -220 -48 -418 -146 -611 -122 -240
-330 -456 -557 -581 -135 -73 -308 -134 -423 -150 -26 -3 -69 -10 -97 -14 -54
-8 -267 -5 -330 5 -360 58 -664 236 -887 520 -133 169 -242 425 -264 620 -3
28 -8 53 -10 57 -6 9 -6 266 0 293 2 11 7 43 10 70 19 137 90 338 167 469 59
99 137 200 225 290 139 142 416 303 589 341 11 2 39 9 63 15 131 32 372 45
459 25z"/>
</g>
</svg>
